:SAMPLES-PER-SECOND 30
:FULLY-SPECIFIED
:DEGREES
49
root  4.58978 40.0202 2.18425 -136.776 -88.1786 140.631
RightUpLeg  -5.88359 -11.141 -12.2504
RightLeg  2.71126 4.50801 0.822312
RightFoot  2.28299 -1.62456 13.6737
RightToes  -1.28057e-009 0 -3.6325e-017
Spine  -5.3525 0.00148492 1.59928
Spine1  8.33685 0.438054 -2.31835
HEad  -8.08917 -13.8445 6.59165
LeftShoulder1  1.7636 -5.46092 -12.6727
LeftArm  50.1848 26.1069 -39.6751
LeftForeArm  99.5689 -79.6946 -50.7862
LeftHand  0.00454335 5.34582 46.5405
RightShoulder  1.36279 2.47014 16.1544
RightArm  51.6029 -24.7562 31.2741
RightForeArm  97.7469 80.1554 57.5694
RightHand  -3.73537 5.163 -39.7657
LeftUpLeg  -3.20214 9.5599 8.57748
LeftLeg  2.53645 5.21145 1.60774
LeftFoot  0.205017 1.38549 -13.5579
LeftToes  -7.27922e-012 9.28972e-011 -9.04533e-012
50
root  4.58985 40.0204 2.18614 -133.59 -88.2673 137.465
RightUpLeg  -5.87468 -11.1811 -12.2839
RightLeg  2.73251 4.41289 0.845598
RightFoot  2.27605 -1.6188 13.6388
RightToes  -1.28057e-009 0 -3.6325e-017
Spine  -5.40689 -0.0498073 1.60328
Spine1  8.32118 0.391327 -2.34746
HEad  -8.09635 -13.8986 6.68872
LeftShoulder1  1.75981 -5.44075 -12.653
LeftArm  50.1834 26.0962 -39.6891
LeftForeArm  99.2564 -79.6633 -50.6086
LeftHand  -0.0179237 5.29311 46.3748
RightShoulder  1.3592 2.44224 16.2032
RightArm  51.7157 -24.6283 31.1936
RightForeArm  97.6016 80.1399 57.4255
RightHand  -3.73547 5.15652 -39.789
LeftUpLeg  -3.25666 9.5361 8.54794
LeftLeg  2.52764 5.11304 1.60141
LeftFoot  0.21265 1.3828 -13.5134
LeftToes  -7.27922e-012 9.28972e-011 -9.04533e-012
51
root  4.59035 40.0203 2.18478 -130.807 -88.3806 134.687
RightUpLeg  -5.84347 -11.1946 -12.2763
RightLeg  2.74763 4.28369 0.858165
RightFoot  2.25709 -1.61142 13.5823
RightToes  -1.28057e-009 0 -3.6325e-017
Spine  -5.46356 -0.107578 1.59126
Spine1  8.31986 0.315938 -2.28328
HEad  -8.05888 -13.8542 6.59545
LeftShoulder1  1.7612 -5.41129 -12.7126
LeftArm  50.1873 26.0636 -39.6127
LeftForeArm  99.1878 -79.6522 -50.5279
LeftHand  -0.0611049 5.19096 46.2557
RightShoulder  1.34792 2.40239 16.1634
RightArm  51.8702 -24.4315 31.1629
RightForeArm  97.785 80.1539 57.5187
RightHand  -3.76575 5.21879 -39.869
LeftUpLeg  -3.29781 9.50995 8.56011
LeftLeg  2.51399 5.00424 1.62812
LeftFoot  0.227091 1.38604 -13.5974
LeftToes  -7.27922e-012 9.28972e-011 -9.04533e-012
52
root  4.5912 40.0201 2.17998 -130.111 -88.4341 133.961
RightUpLeg  -5.8004 -11.1482 -12.2392
RightLeg  2.75918 4.21223 0.817709
RightFoot  2.21946 -1.61375 13.6427
RightToes  -1.28057e-009 0 -3.6325e-017
Spine  -5.46753 -0.0944845 1.54304
Spine1  8.30791 0.297082 -2.1455
HEad  -8.10521 -13.8051 6.41355
LeftShoulder1  1.77381 -5.40484 -12.8847
LeftArm  50.2468 25.9768 -39.4203
LeftForeArm  99.3154 -79.6729 -50.6788
LeftHand  -0.107622 5.08041 46.1566
RightShoulder  1.3438 2.39467 16.1197
RightArm  52.0109 -24.359 31.0511
RightForeArm  98.2705 80.2043 57.9876
RightHand  -3.79004 5.24143 -40.0266
LeftUpLeg  -3.29266 9.54243 8.60317
LeftLeg  2.54096 4.92735 1.61918
LeftFoot  0.222356 1.38158 -13.6089
LeftToes  -7.27922e-012 9.28972e-011 -9.04533e-012
53
root  4.59433 40.0179 2.17366 -132.178 -88.4165 135.995
RightUpLeg  -5.82979 -11.0772 -12.1771
RightLeg  2.84309 4.22957 0.774111
RightFoot  2.16117 -1.61755 13.7292
RightToes  -1.28057e-009 0 -3.6325e-017
Spine  -5.4163 0.00459331 1.47114
Spine1  8.25865 0.354715 -1.95331
HEad  -8.21485 -13.7955 6.30567
LeftShoulder1  1.79383 -5.44396 -13.0357
LeftArm  50.3101 25.888 -39.3156
LeftForeArm  99.2357 -79.6735 -50.7192
LeftHand  -0.116959 5.05797 46.1062
RightShoulder  1.35387 2.42363 16.1835
RightArm  52.1298 -24.4396 30.7629
RightForeArm  98.8214 80.2725 58.736
RightHand  -3.78669 5.19711 -40.1472
LeftUpLeg  -3.28067 9.67751 8.68469
LeftLeg  2.62237 4.86591 1.52372
LeftFoot  0.156676 1.35799 -13.4496
LeftToes  -7.27922e-012 9.28972e-011 -9.04533e-012
54
root  4.60283 40.0103 2.15964 -136.009 -88.4749 139.773
RightUpLeg  -5.88951 -10.9864 -12.0233
RightLeg  3.04797 4.18667 0.774443
RightFoot  2.00519 -1.59349 13.6774
RightToes  -1.28057e-009 0 -3.6325e-017
Spine  -5.3309 0.0842239 1.45638
Spine1  8.25978 0.380841 -1.73214
HEad  -8.3627 -13.7105 6.32274
LeftShoulder1  1.79242 -5.44014 -13.0275
LeftArm  50.2758 25.8142 -39.4446
LeftForeArm  98.9899 -79.6321 -50.4152
LeftHand  -0.0952288 5.10958 46.0962
RightShoulder  1.36685 2.45825 16.2765
RightArm  52.1629 -24.5031 30.4873
RightForeArm  99.6557 80.3591 59.6463
RightHand  -3.79395 5.22933 -40.1062
LeftUpLeg  -3.28807 9.92177 8.91214
LeftLeg  2.76794 4.6442 1.39771
LeftFoot  0.0286287 1.34014 -13.4164
LeftToes  -7.27922e-012 9.28972e-011 -9.04533e-012
55
root  4.61532 39.9994 2.11358 -145.997 -88.7264 149.564
RightUpLeg  -5.81914 -10.643 -11.5673
RightLeg  3.37748 3.83205 0.650332
RightFoot  1.64247 -1.54269 13.598
RightToes  -1.28057e-009 0 -3.6325e-017
Spine  -5.13177 0.0805609 1.57509
Spine1  8.43456 0.31134 -1.53469
HEad  -8.69532 -13.4551 6.39157
LeftShoulder1  1.74558 -5.25321 -12.9088
LeftArm  50.2031 25.6051 -39.6613
LeftForeArm  98.7634 -79.5613 -49.8298
LeftHand  -0.0965483 5.10633 46.0708
RightShoulder  1.37266 2.47734 16.3025
RightArm  52.0406 -24.4634 30.31
RightForeArm  101.823 80.5375 61.3671
RightHand  -3.83779 5.40464 -39.9278
LeftUpLeg  -3.23649 10.393 9.49413
LeftLeg  3.06845 4.03509 1.25009
LeftFoot  -0.145289 1.33872 -13.5991
LeftToes  -7.27922e-012 9.28972e-011 -9.04533e-012
56
root  4.63557 39.9792 2.00206 -172.172 -88.9568 175.301
RightUpLeg  -5.74006 -9.71337 -10.5913
RightLeg  4.1548 3.01575 0.132683
RightFoot  0.976221 -1.46662 13.5958
RightToes  -1.28057e-009 0 -3.6325e-017
Spine  -4.62509 0.0738059 1.69734
Spine1  8.69761 0.209614 -1.28303
HEad  -9.36546 -13.0718 6.40711
LeftShoulder1  1.67345 -4.9163 -12.8437
LeftArm  50.2246 25.1828 -39.7486
LeftForeArm  98.4936 -79.4644 -49.0474
LeftHand  -0.135528 5.01365 46.0637
RightShoulder  1.37502 2.47496 16.3557
RightArm  51.8762 -24.4012 29.8763
RightForeArm  106.574 80.8855 65.3006
RightHand  -3.87095 5.56937 -39.6894
LeftUpLeg  -3.07158 11.2006 10.5401
LeftLeg  3.68254 3.01772 1.02146
LeftFoot  -0.415388 1.31844 -13.7075
LeftToes  -7.27922e-012 9.28972e-011 -9.04533e-012
57
root  4.67868 39.9279 1.80572 154.296 -88.7951 -151.771
RightUpLeg  -6.05998 -8.04821 -9.21943
RightLeg  5.94109 1.66967 -0.745179
RightFoot  -0.0585587 -1.32697 13.3695
RightToes  -1.28057e-009 0 -3.6325e-017
Spine  -3.66759 0.129472 1.48527
Spine1  8.74375 0.103222 -0.709907
HEad  -10.2937 -12.5795 6.31814
LeftShoulder1  1.61173 -4.60777 -12.8373
LeftArm  50.2624 24.7936 -39.6999
LeftForeArm  98.7626 -79.4107 -48.4677
LeftHand  -0.198439 4.86332 45.9826
RightShoulder  1.37518 2.43956 16.5094
RightArm  51.8905 -24.3048 28.8865
RightForeArm  114.58 81.3401 72.2638
RightHand  -3.83404 5.57729 -39.3154
LeftUpLeg  -2.90289 12.0889 11.8433
LeftLeg  4.65203 1.87268 0.828914
LeftFoot  -0.815626 1.29423 -13.9451
LeftToes  -7.27922e-012 9.28972e-011 -9.04533e-012
58
root  4.75238 39.8398 1.52165 142.005 -88.4454 -140.002
RightUpLeg  -6.98903 -5.47144 -7.98231
RightLeg  8.68686 -0.451527 -1.58013
RightFoot  -1.36435 -1.11834 12.6501
RightToes  -1.28057e-009 0 -3.6325e-017
Spine  -2.51233 0.211251 0.63623
Spine1  8.49716 -0.0347688 0.262545
HEad  -11.2858 -11.8641 6.16711
LeftShoulder1  1.54091 -4.32141 -12.6388
LeftArm  50.1235 24.703 -39.6182
LeftForeArm  101.025 -79.5741 -49.0616
LeftHand  -0.343969 4.50387 45.3683
RightShoulder  1.3611 2.36462 16.5706
RightArm  52.0877 -23.9986 27.6236
RightForeArm  125.786 81.7264 81.7046
RightHand  -3.73207 5.50955 -38.5709
LeftUpLeg  -2.9141 12.6649 12.9836
LeftLeg  5.70799 1.03524 0.880404
LeftFoot  -1.15659 1.33956 -14.8872
LeftToes  -7.27922e-012 9.28972e-011 -9.04533e-012
59
root  4.81877 39.7642 1.16554 119.847 -88.1953 -119.43
RightUpLeg  -6.33767 -3.1048 -7.08734
RightLeg  11.0043 -2.88515 -2.15493
RightFoot  -2.63063 -0.916125 11.7584
RightToes  -1.28057e-009 0 -3.6325e-017
Spine  -0.0193787 0.0341091 -0.630649
Spine1  8.00644 -0.505087 1.56538
HEad  -12.2944 -10.8693 6.07476
LeftShoulder1  1.41157 -3.86981 -12.0278
LeftArm  49.8503 24.7654 -39.472
LeftForeArm  105.816 -80.0213 -51.5221
LeftHand  -0.637731 3.7377 43.965
RightShoulder  1.32221 2.25883 16.2986
RightArm  52.2085 -23.4879 26.5684
RightForeArm  139.446 81.897 92.7382
RightHand  -3.60506 5.535 -37.2775
LeftUpLeg  -1.77429 12.7998 14.1017
LeftLeg  6.26162 -0.138296 1.27221
LeftFoot  -1.16988 1.44955 -16.1165
LeftToes  -7.27922e-012 9.28972e-011 -9.04533e-012
60
root  4.8314 39.7696 0.780102 47.9969 -87.6425 -51.9927
RightUpLeg  -0.998731 -3.40108 -5.94552
RightLeg  11.0662 -4.35462 -2.64937
RightFoot  -3.38098 -0.799395 11.1283
RightToes  -1.28057e-009 0 -3.6325e-017
Spine  5.825 -0.776675 -1.49148
Spine1  7.07872 -1.71048 3.12492
HEad  -13.3432 -9.79432 6.12931
LeftShoulder1  1.25312 -3.33185 -11.1314
LeftArm  49.6697 24.6302 -39.0905
LeftForeArm  111.521 -80.5443 -55.1237
LeftHand  -0.987214 2.76005 42.3638
RightShoulder  1.262 2.12229 15.737
RightArm  52.0567 -23.1916 25.799
RightForeArm  153.394 81.7365 104.318
RightHand  -3.47207 5.67386 -35.5802
LeftUpLeg  2.3355 12.4486 15.8652
LeftLeg  5.75383 -3.09349 2.07675
LeftFoot  -0.780836 1.5524 -16.6508
LeftToes  -7.27922e-012 9.28972e-011 -9.04533e-012
61
root  4.8946 39.7283 0.310421 51.2962 -86.073 -55.4342
RightUpLeg  -0.909771 -3.44888 -3.82964
RightLeg  11.344 -5.57435 -2.91968
RightFoot  -3.64104 -0.732863 10.4909
RightToes  -1.28057e-009 0 -3.6325e-017
Spine  6.39798 -0.858967 -0.979998
Spine1  7.11531 -1.82665 3.83598
HEad  -14.288 -8.9781 6.27353
LeftShoulder1  1.1591 -3.0963 -10.2792
LeftArm  49.5674 24.1704 -38.381
LeftForeArm  115.616 -80.875 -57.7981
LeftHand  -1.23839 2.00891 41.2724
RightShoulder  1.19379 1.94988 15.1441
RightArm  51.6202 -23.6069 25.1573
RightForeArm  163.4 81.339 113.261
RightHand  -3.34431 5.76247 -34.1034
LeftUpLeg  1.55262 11.9374 17.4701
LeftLeg  6.36727 -3.69028 2.56619
LeftFoot  -0.581777 1.61164 -16.9736
LeftToes  -7.27922e-012 9.28972e-011 -9.04533e-012
